<?xml version="1.0" ?><!DOCTYPE svg  PUBLIC '-//W3C//DTD SVG 1.1//EN'  'http://www.w3.org/Graphics/SVG/1.1/DTD/svg11.dtd'><svg enable-background="new 0 0 32 32" height="32px" version="1.1" viewBox="0 0 32 32" width="32px" xml:space="preserve" xmlns="http://www.w3.org/2000/svg" xmlns:xlink="http://www.w3.org/1999/xlink"><g id="Emoji_x2C__smiley_x2C__smile_x2C__cute_x2C__naivety_x2C__naive"><circle cx="16" cy="16" fill="#FFF176" id="XMLID_264_" r="13.5"/><path d="M29,13.5C29,20.956,22.956,27,15.5,27c-6.111,0-11.268-4.063-12.931-9.633   C3.255,24.181,9.006,29.5,16,29.5c7.456,0,13.5-6.044,13.5-13.5c0-1.345-0.203-2.642-0.569-3.867C28.977,12.582,29,13.038,29,13.5z   " fill="#E6D96A" id="XMLID_265_"/><path d="M3.491,21.064C3.181,19.927,3,18.736,3,17.5C3,10.044,9.044,4,16.5,4   c5.663,0,10.505,3.491,12.509,8.436C27.443,6.712,22.22,2.5,16,2.5C8.544,2.5,2.5,8.544,2.5,16C2.5,17.792,2.856,19.5,3.491,21.064   z" fill="#FFF5A2" id="XMLID_267_"/><path d="M16,30C8.28,30,2,23.72,2,16S8.28,2,16,2s14,6.28,14,14S23.72,30,16,30z M16,3   C8.832,3,3,8.832,3,16s5.832,13,13,13s13-5.832,13-13S23.168,3,16,3z" fill="#455A64" id="XMLID_268_"/><g id="XMLID_273_"><g id="XMLID_274_"><g id="XMLID_278_"><circle cx="11" cy="13" fill="#FFFFFF" id="XMLID_280_" r="3.5"/><path d="M11,17c-2.206,0-4-1.794-4-4s1.794-4,4-4s4,1.794,4,4S13.206,17,11,17z M11,10      c-1.654,0-3,1.346-3,3s1.346,3,3,3s3-1.346,3-3S12.654,10,11,10z" fill="#455A64" id="XMLID_281_"/></g></g><g id="XMLID_287_"><circle cx="11" cy="13" fill="#455A64" id="XMLID_288_" r="2"/></g><g id="XMLID_290_"><circle cx="11.5" cy="13.5" fill="#FFFFFF" id="XMLID_292_" r="0.5"/></g><g id="XMLID_293_"><circle cx="10.5" cy="12.5" fill="#FFFFFF" id="XMLID_294_" r="0.75"/></g></g><g id="XMLID_295_"><g id="XMLID_296_"><g id="XMLID_297_"><circle cx="21" cy="13" fill="#FFFFFF" id="XMLID_298_" r="3.5"/><path d="M21,17c-2.206,0-4-1.794-4-4s1.794-4,4-4s4,1.794,4,4S23.206,17,21,17z M21,10      c-1.654,0-3,1.346-3,3s1.346,3,3,3s3-1.346,3-3S22.654,10,21,10z" fill="#455A64" id="XMLID_299_"/></g></g><g id="XMLID_302_"><circle cx="21" cy="13" fill="#455A64" id="XMLID_303_" r="2"/></g><g id="XMLID_304_"><circle cx="21.5" cy="13.5" fill="#FFFFFF" id="XMLID_305_" r="0.5"/></g><g id="XMLID_306_"><circle cx="20.5" cy="12.5" fill="#FFFFFF" id="XMLID_308_" r="0.75"/></g></g><path d="M23.501,7.999c-0.104,0-0.208-0.032-0.297-0.098C23.191,7.893,21.957,7,20.002,7   c-0.276,0-0.5-0.224-0.5-0.5s0.224-0.5,0.5-0.5c2.304,0,3.739,1.055,3.8,1.1c0.221,0.165,0.265,0.477,0.101,0.698   C23.805,7.93,23.653,7.999,23.501,7.999z" fill="#455A64" id="XMLID_309_"/><path d="M8.501,7.999c-0.155,0-0.308-0.071-0.405-0.207c-0.161-0.223-0.112-0.534,0.11-0.696   C8.268,7.051,9.737,6,12,6c0.276,0,0.5,0.224,0.5,0.5S12.276,7,12,7c-1.923,0-3.194,0.896-3.207,0.905   C8.704,7.969,8.603,7.999,8.501,7.999z" fill="#455A64" id="XMLID_310_"/><path d="M16,23c-2.206,0-4-1.794-4-4c0-0.276,0.224-0.5,0.5-0.5S13,18.724,13,19   c0,1.654,1.346,3,3,3s3-1.346,3-3c0-0.276,0.224-0.5,0.5-0.5S20,18.724,20,19C20,21.206,18.206,23,16,23z" fill="#455A64" id="XMLID_311_"/></g></svg>